<svg xmlns="http://www.w3.org/2000/svg" xmlns:xlink="http://www.w3.org/1999/xlink" version="1.1" style="enable-background:new 0 0 490.4 490.4;" xml:space="preserve" width="490.4" height="490.4"><rect id="backgroundrect" width="100%" height="100%" x="0" y="0" fill="none" stroke="none"/>
















<g class="currentLayer" style=""><title>Layer 1</title><g id="svg_1" class="selected" fill="#ffffff" fill-opacity="1" stroke="#ffffff" stroke-opacity="1">
	<g id="svg_2" fill="#ffffff" fill-opacity="1" stroke="#ffffff" stroke-opacity="1">
		<g id="svg_3" fill="#ffffff" fill-opacity="1" stroke="#ffffff" stroke-opacity="1">
			<path d="M17.2,251.55c-9.5,0-17.2,7.7-17.2,17.1v179.7c0,9.5,7.7,17.2,17.2,17.2h113c9.5,0,17.1-7.7,17.1-17.2v-179.7     c0-9.5-7.7-17.1-17.1-17.1L17.2,251.55L17.2,251.55z M113,431.25H34.3v-145.4H113V431.25z" id="svg_4" fill="#ffffff" fill-opacity="1" stroke="#ffffff" stroke-opacity="1"/>
			<path d="M490.4,448.45v-283.7c0-9.5-7.7-17.2-17.2-17.2h-113c-9.5,0-17.2,7.7-17.2,17.2v283.6c0,9.5,7.7,17.2,17.2,17.2h113     C482.7,465.55,490.4,457.85,490.4,448.45z M456.1,431.25h-78.7v-249.3h78.7L456.1,431.25L456.1,431.25z" id="svg_5" fill="#ffffff" fill-opacity="1" stroke="#ffffff" stroke-opacity="1"/>
			<path d="M301.7,465.55c9.5,0,17.1-7.7,17.1-17.2V42.05c0-9.5-7.7-17.2-17.1-17.2h-113c-9.5,0-17.2,7.7-17.2,17.2v406.3     c0,9.5,7.7,17.2,17.2,17.2H301.7z M205.9,59.25h78.7v372h-78.7L205.9,59.25L205.9,59.25z" id="svg_6" fill="#ffffff" fill-opacity="1" stroke="#ffffff" stroke-opacity="1"/>
		</g>
	</g>
	<g id="svg_7" fill="#ffffff" fill-opacity="1" stroke="#ffffff" stroke-opacity="1">
	</g>
	<g id="svg_8" fill="#ffffff" fill-opacity="1" stroke="#ffffff" stroke-opacity="1">
	</g>
	<g id="svg_9" fill="#ffffff" fill-opacity="1" stroke="#ffffff" stroke-opacity="1">
	</g>
	<g id="svg_10" fill="#ffffff" fill-opacity="1" stroke="#ffffff" stroke-opacity="1">
	</g>
	<g id="svg_11" fill="#ffffff" fill-opacity="1" stroke="#ffffff" stroke-opacity="1">
	</g>
	<g id="svg_12" fill="#ffffff" fill-opacity="1" stroke="#ffffff" stroke-opacity="1">
	</g>
	<g id="svg_13" fill="#ffffff" fill-opacity="1" stroke="#ffffff" stroke-opacity="1">
	</g>
	<g id="svg_14" fill="#ffffff" fill-opacity="1" stroke="#ffffff" stroke-opacity="1">
	</g>
	<g id="svg_15" fill="#ffffff" fill-opacity="1" stroke="#ffffff" stroke-opacity="1">
	</g>
	<g id="svg_16" fill="#ffffff" fill-opacity="1" stroke="#ffffff" stroke-opacity="1">
	</g>
	<g id="svg_17" fill="#ffffff" fill-opacity="1" stroke="#ffffff" stroke-opacity="1">
	</g>
	<g id="svg_18" fill="#ffffff" fill-opacity="1" stroke="#ffffff" stroke-opacity="1">
	</g>
	<g id="svg_19" fill="#ffffff" fill-opacity="1" stroke="#ffffff" stroke-opacity="1">
	</g>
	<g id="svg_20" fill="#ffffff" fill-opacity="1" stroke="#ffffff" stroke-opacity="1">
	</g>
	<g id="svg_21" fill="#ffffff" fill-opacity="1" stroke="#ffffff" stroke-opacity="1">
	</g>
</g><g id="svg_22">
</g><g id="svg_23">
</g><g id="svg_24">
</g><g id="svg_25">
</g><g id="svg_26">
</g><g id="svg_27">
</g><g id="svg_28">
</g><g id="svg_29">
</g><g id="svg_30">
</g><g id="svg_31">
</g><g id="svg_32">
</g><g id="svg_33">
</g><g id="svg_34">
</g><g id="svg_35">
</g><g id="svg_36">
</g></g></svg>