<svg xmlns="http://www.w3.org/2000/svg" xmlns:xlink="http://www.w3.org/1999/xlink" version="1.1" style="enable-background:new 0 0 512 512;" xml:space="preserve" width="512" height="512"><rect id="backgroundrect" width="100%" height="100%" x="0" y="0" fill="none" stroke="none"/>

















<g class="currentLayer" style=""><title>Layer 1</title><g id="svg_1" class="">
	<g id="svg_2">
		<path d="M209.297,106.47c-27.041-19.819-54.785-44.246-74.531-73.865L117.48,6.677c-3.662-5.493-10.488-7.939-16.831-6.035    C94.321,2.561,90,8.391,90,14.998v235.344c-8.86-5.167-19.023-8.344-30-8.344c-33.091,0-60,26.909-60,60    c0,33.091,26.909,59.999,60,59.999s60-26.909,60-60V64.249c21.196,26.792,47.71,48.93,71.558,66.42    C203.276,139.253,210,152.496,210,166.997c0,24.814-20.186,45-45,45c-8.291,0-15,6.709-15,15c0,8.291,6.709,15,15,15    c41.353,0,75-33.647,75-75C240,143.193,228.53,120.576,209.297,106.47z" id="svg_3"/>
	</g>
</g><g class="" id="svg_22" fill="#ffffff" fill-opacity="1" stroke="#ffffff" stroke-opacity="1">
	<g id="svg_24" fill="#ffffff" fill-opacity="1" stroke="#ffffff" stroke-opacity="1">
		<path d="M209.297,106.47c-27.041-19.819-54.785-44.246-74.531-73.865L117.48,6.677c-3.662-5.493-10.488-7.939-16.831-6.035    C94.321,2.561,90,8.391,90,14.998v235.344c-8.86-5.167-19.023-8.344-30-8.344c-33.091,0-60,26.909-60,60    c0,33.091,26.909,59.999,60,59.999s60-26.909,60-60V64.249c21.196,26.792,47.71,48.93,71.558,66.42    C203.276,139.253,210,152.496,210,166.997c0,24.814-20.186,45-45,45c-8.291,0-15,6.709-15,15c0,8.291,6.709,15,15,15    c41.353,0,75-33.647,75-75C240,143.193,228.53,120.576,209.297,106.47z" id="svg_3" fill="#ffffff" fill-opacity="1" stroke="#ffffff" stroke-opacity="1"/>
	</g>
</g><g id="svg_4" class="selected" fill="#ffffff" fill-opacity="1" stroke="#ffffff" stroke-opacity="1">
	<g id="svg_5" fill="#ffffff" fill-opacity="1" stroke="#ffffff" stroke-opacity="1">
		<path d="M492.884,122.569l-212,60c-6.445,1.846-10.884,7.734-10.884,14.429v203.344c-8.86-5.167-19.023-8.344-30-8.344    c-33.091,0-60,26.909-60,60s26.909,60,60,60s60-26.909,60-60c0-3.42,0-183.68,0-183.68l182-51.429v123.453    c-8.86-5.167-19.023-8.344-30-8.344c-33.091,0-60,26.909-60,60s26.909,60,60,60s60-26.909,60-60c0-3.42,0-255,0-255    C512,127.077,502.51,119.85,492.884,122.569z" id="svg_6" fill="#ffffff" fill-opacity="1" stroke="#ffffff" stroke-opacity="1"/>
	</g>
</g><g id="svg_7">
</g><g id="svg_8">
</g><g id="svg_9">
</g><g id="svg_10">
</g><g id="svg_11">
</g><g id="svg_12">
</g><g id="svg_13">
</g><g id="svg_14">
</g><g id="svg_15">
</g><g id="svg_16">
</g><g id="svg_17">
</g><g id="svg_18">
</g><g id="svg_19">
</g><g id="svg_20">
</g><g id="svg_21">
</g></g></svg>