<?xml version="1.0" standalone="no"?>
<!DOCTYPE svg PUBLIC "-//W3C//DTD SVG 20010904//EN"
 "http://www.w3.org/TR/2001/REC-SVG-20010904/DTD/svg10.dtd">
<svg version="1.0" xmlns="http://www.w3.org/2000/svg"
 width="500.000000pt" height="500.000000pt" viewBox="0 0 500.000000 500.000000"
 preserveAspectRatio="xMidYMid meet">
<metadata>
Created by potrace 1.14, written by Peter Selinger 2001-2017
</metadata>
<g transform="translate(0.000000,500.000000) scale(0.100000,-0.100000)"
fill="#000000" stroke="none">
<path d="M850 4975 c-441 -78 -770 -418 -829 -858 -7 -52 -11 -595 -11 -1615
0 -1668 -1 -1642 55 -1808 86 -255 268 -462 510 -579 107 -52 207 -81 330 -95
125 -14 3091 -14 3205 0 224 28 428 129 591 294 123 124 207 271 256 451 l28
100 0 1635 0 1635 -27 96 c-103 376 -364 632 -748 736 -61 16 -176 17 -1675
19 -1295 2 -1625 0 -1685 -11z m1970 -450 c645 -100 1200 -492 1522 -1075 97
-175 178 -412 218 -640 22 -119 23 -162 31 -855 7 -713 7 -732 -13 -815 -82
-347 -395 -612 -739 -628 -103 -4 -107 -4 -123 19 -14 21 -16 96 -16 809 0
616 3 790 13 810 12 24 17 25 102 25 96 0 191 -21 283 -61 l52 -23 0 205 0
205 -109 -2 c-74 -2 -115 2 -124 10 -9 7 -18 40 -22 79 -18 178 -63 331 -145
497 -123 248 -328 461 -580 603 -202 113 -516 184 -745 167 -367 -28 -659
-159 -911 -410 -241 -240 -370 -513 -409 -867 -3 -31 -12 -61 -19 -67 -7 -6
-61 -12 -122 -13 l-109 -3 -3 -204 c-2 -161 0 -202 10 -198 139 61 241 87 343
87 44 0 68 -5 79 -16 14 -14 16 -102 16 -823 0 -614 -3 -810 -12 -819 -19 -19
-164 -15 -251 7 -372 96 -633 423 -629 791 0 58 5 393 10 745 9 687 10 701 68
930 164 647 681 1209 1319 1435 122 43 303 86 416 99 52 6 108 13 124 15 62 9
374 -4 475 -19z m-443 -1911 c15 -11 33 -36 40 -55 16 -45 18 -1875 2 -1932
-17 -64 -51 -77 -199 -77 -149 0 -182 13 -200 79 -7 27 -9 339 -8 984 3 942 3
946 24 974 32 43 74 53 201 50 95 -2 116 -5 140 -23z m-572 -486 c56 -26 55
-5 55 -791 l0 -724 -27 -27 c-35 -35 -51 -38 -193 -34 l-122 3 -29 33 -29 32
0 723 c0 799 -4 753 64 783 40 17 244 19 281 2z m1693 -235 c52 -32 52 -38 52
-663 0 -624 0 -628 -51 -664 -33 -23 -284 -24 -317 0 -53 37 -52 27 -52 664 0
719 -11 671 159 681 116 7 178 2 209 -18z m-570 -463 c60 -37 62 -52 62 -435
0 -374 -3 -395 -53 -428 -22 -14 -51 -17 -160 -17 -118 0 -137 2 -159 20 -47
37 -49 52 -46 442 l3 367 29 30 c35 36 42 38 181 40 94 1 115 -2 143 -19z"/>
</g>
</svg>
